<svg xmlns="http://www.w3.org/2000/svg" role="img" aria-labelledby="title desc" viewBox="0 0 1200 820">
  <title id="title">prime-background-tasks architecture</title>
  <desc id="desc">Pi session routes to a background registry, delegate child process, and Fusion candidates that flow through blind evaluation, optional repair, and merger.</desc>
  <defs>
    <linearGradient id="panel" x1="0" x2="1">
      <stop offset="0" stop-color="#071a33"/>
      <stop offset="1" stop-color="#0e3157"/>
    </linearGradient>
    <linearGradient id="cyan" x1="0" x2="1">
      <stop offset="0" stop-color="#77f5ff"/>
      <stop offset="1" stop-color="#18bde7"/>
    </linearGradient>
    <linearGradient id="amber" x1="0" x2="1">
      <stop offset="0" stop-color="#ffd987"/>
      <stop offset="1" stop-color="#ffa51f"/>
    </linearGradient>
    <marker id="arrowCyan" markerWidth="12" markerHeight="12" refX="10" refY="6" orient="auto">
      <path d="M2,2 L10,6 L2,10" fill="none" stroke="#37d7ef" stroke-width="2.5" stroke-linecap="round" stroke-linejoin="round"/>
    </marker>
    <marker id="arrowAmber" markerWidth="12" markerHeight="12" refX="10" refY="6" orient="auto">
      <path d="M2,2 L10,6 L2,10" fill="none" stroke="#ffb43d" stroke-width="2.5" stroke-linecap="round" stroke-linejoin="round"/>
    </marker>
    <style>
      .bg{fill:#061529}.panel{fill:url(#panel);stroke:#2ed7ef;stroke-opacity:.45;stroke-width:2}.node{fill:#0b2848;stroke:#64ecff;stroke-width:2}.amber{stroke:#ffbd4b}.txt{font-family:ui-sans-serif,system-ui,-apple-system,Segoe UI,sans-serif;fill:#eefbff}.muted{fill:#a9c7d8}.small{font-size:22px}.label{font-size:26px;font-weight:700}.tiny{font-size:18px}.line{fill:none;stroke:#37d7ef;stroke-width:4;stroke-linecap:round;stroke-linejoin:round;marker-end:url(#arrowCyan)}.lineA{fill:none;stroke:#ffb43d;stroke-width:4;stroke-linecap:round;stroke-linejoin:round;marker-end:url(#arrowAmber)}
    </style>
  </defs>
  <rect class="bg" width="1200" height="820" rx="34"/>
  <circle cx="100" cy="78" r="6" fill="#72f3ff" opacity=".7"/><circle cx="1090" cy="82" r="5" fill="#ffbd4b" opacity=".8"/><circle cx="1028" cy="760" r="5" fill="#72f3ff" opacity=".6"/>

  <rect class="panel" x="50" y="70" width="250" height="126" rx="24"/>
  <text class="txt label" x="175" y="122" text-anchor="middle">Pi session</text>
  <text class="muted small" x="175" y="158" text-anchor="middle">commands · tools · EventBus</text>

  <rect class="panel" x="430" y="46" width="300" height="170" rx="26"/>
  <text class="txt label" x="580" y="98" text-anchor="middle">Background registry</text>
  <text class="muted small" x="580" y="134" text-anchor="middle">spawn · track · kill</text>
  <text class="muted small" x="580" y="168" text-anchor="middle">closed output + durable metadata</text>

  <rect class="panel" x="858" y="70" width="292" height="126" rx="24"/>
  <text class="txt label" x="1004" y="122" text-anchor="middle">Notification</text>
  <text class="muted small" x="1004" y="158" text-anchor="middle">footer · follow-up turn</text>

  <path class="line" d="M300 132 C350 132 378 132 430 132"/>
  <path class="line" d="M730 132 C782 132 807 132 858 132"/>

  <rect class="panel" x="72" y="284" width="268" height="118" rx="24"/>
  <text class="txt label" x="206" y="334" text-anchor="middle">Projected seed</text>
  <text class="muted small" x="206" y="370" text-anchor="middle">visible conversation only</text>

  <rect class="panel" x="462" y="274" width="278" height="138" rx="24"/>
  <text class="txt label" x="601" y="326" text-anchor="middle">Delegate child</text>
  <text class="muted small" x="601" y="362" text-anchor="middle">isolated · inspect-only</text>

  <rect class="panel" x="870" y="284" width="250" height="118" rx="24"/>
  <text class="txt label" x="995" y="334" text-anchor="middle">Verified result</text>
  <text class="muted small" x="995" y="370" text-anchor="middle">hash-checked retrieval</text>

  <path class="line" d="M300 196 C290 240 254 252 225 284"/>
  <path class="line" d="M340 343 C392 343 410 343 462 343"/>
  <path class="line" d="M740 343 C790 343 820 343 870 343"/>

  <text class="txt label" x="72" y="502">Fusion workflow</text>
  <text class="muted small" x="72" y="534">fixed purpose · clean stage policies · no silent fallback</text>

  <g transform="translate(76 570)">
    <rect class="node" x="0" y="0" width="160" height="62" rx="18"/><text class="txt small" x="80" y="39" text-anchor="middle">Candidate 1</text>
    <rect class="node" x="0" y="78" width="160" height="62" rx="18"/><text class="txt small" x="80" y="117" text-anchor="middle">Candidate 2</text>
    <rect class="node" x="0" y="156" width="160" height="62" rx="18"/><text class="txt small" x="80" y="195" text-anchor="middle">Candidate 3</text>
  </g>
  <rect class="node" x="372" y="648" width="160" height="62" rx="18"/><text class="txt small" x="452" y="687" text-anchor="middle">Blind eval</text>
  <rect class="node amber" x="620" y="648" width="188" height="62" rx="18"/><text class="txt small" x="714" y="687" text-anchor="middle">Optional repair</text>
  <rect class="node amber" x="896" y="648" width="154" height="62" rx="18"/><text class="txt small" x="973" y="687" text-anchor="middle">Merger</text>
  <path class="line" d="M236 601 C292 601 310 662 372 679"/>
  <path class="line" d="M236 679 H372"/>
  <path class="line" d="M236 757 C292 757 310 696 372 679"/>
  <path class="lineA" d="M532 679 H620"/>
  <path class="lineA" d="M808 679 H896"/>
</svg>
